<svg xmlns="http://www.w3.org/2000/svg" viewBox="0 0 100 100" role="img" aria-label="A causal set inside a causal diamond">
  <g fill="none" stroke="#1a1a1a" stroke-width="1.1" stroke-linecap="round" stroke-linejoin="round">
    <path d="M50.0,7.0 L91.0,50.0 L50.0,93.0 L9.0,50.0Z" stroke-width="0.75"/>
    <path d="M50.0,84.0 Q42.0,77.0 35.0,69.0"/>
    <path d="M50.0,84.0 Q57.0,75.9 63.0,67.0"/>
    <path d="M35.0,69.0 Q42.1,62.5 50.0,57.0"/>
    <path d="M63.0,67.0 Q56.8,61.6 50.0,57.0"/>
    <path d="M35.0,69.0 Q30.5,60.7 27.0,52.0"/>
    <path d="M63.0,67.0 Q68.0,58.3 72.0,49.0"/>
    <path d="M50.0,57.0 Q46.0,48.2 43.0,39.0"/>
    <path d="M27.0,52.0 Q35.4,46.0 43.0,39.0"/>
    <path d="M72.0,49.0 Q67.0,40.3 63.0,31.0"/>
    <path d="M43.0,39.0 Q47.1,29.2 50.0,19.0"/>
    <path d="M63.0,31.0 Q56.1,25.4 50.0,19.0"/>
  </g>
  <circle cx="50.0" cy="84.0" r="2.0" fill="#1a1a1a"/>
  <circle cx="35.0" cy="69.0" r="2.0" fill="#1a1a1a"/>
  <circle cx="63.0" cy="67.0" r="2.0" fill="#1a1a1a"/>
  <circle cx="50.0" cy="57.0" r="2.0" fill="#1a1a1a"/>
  <circle cx="27.0" cy="52.0" r="2.0" fill="#1a1a1a"/>
  <circle cx="72.0" cy="49.0" r="2.0" fill="#1a1a1a"/>
  <circle cx="43.0" cy="39.0" r="2.0" fill="#1a1a1a"/>
  <circle cx="63.0" cy="31.0" r="2.0" fill="#1a1a1a"/>
  <circle cx="50.0" cy="19.0" r="2.0" fill="#1a1a1a"/>
</svg>
